<svg width="25" height="17" viewBox="0 0 25 17" fill="none" xmlns="http://www.w3.org/2000/svg">
<path fill-rule="evenodd" clip-rule="evenodd" d="M22.0002 0.728252C23.0575 1.0048 23.8912 1.81433 24.1758 2.84133C24.7046 4.71718 24.6842 8.62728 24.6842 8.62728C24.6842 8.62728 24.6842 12.5174 24.176 14.3935C23.8912 15.4203 23.0577 16.23 22.0002 16.5064C20.0686 17.0002 12.3421 17.0002 12.3421 17.0002C12.3421 17.0002 4.63583 17.0002 2.68402 16.4868C1.62657 16.2102 0.79304 15.4005 0.508291 14.3737C0 12.5174 0 8.60752 0 8.60752C0 8.60752 0 4.71718 0.508291 2.84133C0.792852 1.81451 1.64691 0.985047 2.68383 0.708681C4.61549 0.214844 12.3419 0.214844 12.3419 0.214844C12.3419 0.214844 20.0686 0.214844 22.0002 0.728252ZM15.7977 8.60736L9.87342 12.0632V5.15155L15.7977 8.60736Z" fill="black"/>
</svg>
