<svg width="19" height="17" viewBox="0 0 19 17" fill="none" xmlns="http://www.w3.org/2000/svg">
<path d="M2.81322 0.214844C1.52552 0.214844 0.683594 1.06041 0.683594 2.1718C0.683594 3.25864 1.50044 4.12832 2.76381 4.12832H2.78825C4.10114 4.12832 4.9182 3.25864 4.9182 2.1718C4.89365 1.06041 4.10114 0.214844 2.81322 0.214844Z" fill="black"/>
<path d="M0.90625 5.67383H4.67075V16.9995H0.90625V5.67383Z" fill="black"/>
<path d="M13.9111 5.4082C11.8803 5.4082 10.5185 7.3165 10.5185 7.3165V5.67402H6.75391V16.9997H10.5183V10.675C10.5183 10.3364 10.5428 9.99833 10.6423 9.75621C10.9144 9.08009 11.5338 8.37965 12.5738 8.37965C13.9359 8.37965 14.4808 9.41826 14.4808 10.9408V16.9997H18.2449V10.5057C18.2449 7.02699 16.3877 5.4082 13.9111 5.4082Z" fill="black"/>
</svg>
